<svg xmlns="http://www.w3.org/2000/svg" version="1.1" xmlns:xlink="http://www.w3.org/1999/xlink" xmlns:svgjs="http://svgjs.dev/svgjs" viewBox="0 0 10.340221901158925 3.4216926001210575"><g transform="matrix(0.7489719849043998,0,0,0.7489719849043998,3.7303511654023933,1.3047162412461177)"><g transform="matrix(1,0,0,1,0,0)" clip-path="url(#SvgjsClipPath5564)"><g clip-path="url(#SvgjsClipPath55624cc6c0f3-9b77-4ee9-902f-fc032d0b1d26)"><path d=" M -2.2364881700905808 0.9052050345993485 C -2.388664329830383 0.6129030361256151 -2.3424745664013935 0.25672435237013236 -2.120773712995521 0.012907262107782258 L -2.120773712995521 -0.43378804393241543 C -2.7313489430615885 -0.06719212796607366 -2.858543967626666 0.7574876329135258 -2.3936845172626677 1.2892978875615735 C -2.359495893494248 1.2058164465496575 -2.3877946870576108 1.2749644335859847 -2.2364881700905808 0.9052050345993485 Z" fill="#8a615c" transform="matrix(1,0,0,1,0,0)" fill-rule="nonzero"></path></g><g clip-path="url(#SvgjsClipPath55624cc6c0f3-9b77-4ee9-902f-fc032d0b1d26)"><path d=" M -0.8379065750310888 0.9051475167262524 C -0.7348115392933474 1.1572138437833153 -0.7715999709257175 1.0672328831115214 -0.6808137600305759 1.289366909009289 C -0.21499951297318054 0.7564753183470316 -0.344196159522006 -0.06784783171937081 -0.9536440392753895 -0.43363849746236505 L -0.9536440392753895 0.012907262107782258 C -0.7319294862898607 0.25669353383378857 -0.6857289379286455 0.6128616018183379 -0.8379065750310888 0.9051475167262522 Z" fill="#8a615c" transform="matrix(1,0,0,1,0,0)" fill-rule="nonzero"></path></g><g clip-path="url(#SvgjsClipPath55624cc6c0f3-9b77-4ee9-902f-fc032d0b1d26)"><path d=" M -1.2992574351362145 1.2934506779991237 C -1.4540597208496484 1.3423810988519045 -1.6201854778019689 1.342381098851905 -1.7749877635154059 1.2934506779991237 L -2.1099488492788026 1.524154866988235 C -1.7561390653195854 1.7310435207676822 -1.318255679802081 1.7310435207676822 -0.9644458958428639 1.524154866988235 C -1.106584063838352 1.4261904255306794 -1.033904479393915 1.476265485848286 -1.2992574351362145 1.2934506779991237 Z" fill="#8a615c" transform="matrix(1,0,0,1,0,0)" fill-rule="nonzero"></path></g><g clip-path="url(#SvgjsClipPath55624cc6c0f3-9b77-4ee9-902f-fc032d0b1d26)"><path d=" M -0.6069953216988293 1.6792000457065208 C -0.6069953216988293 1.6712050613461404 -1.5356904042857118 -0.5918931734994234 -1.5372088761354528 -0.5951831958405297 C -1.5385547943659055 -0.5918931734994234 -2.464696083387313 1.6796831958405292 -2.4679976093030387 1.6796831958405292 C -2.4646845798126944 1.6796831958405292 -2.344989885899372 1.5948788437473993 -1.5371168475384993 1.0385084572872472 C -0.5526064208990058 1.7166211739429496 -0.6069953216988293 1.6759100233654143 -0.6069953216988293 1.6792000457065208 Z" fill="#8a615c" transform="matrix(1,0,0,1,0,0)" fill-rule="nonzero"></path></g></g><g><path d=" M 0.114 1.0845000000000002 L 0.114 0.05550000000000033 L 0.3375 0.05550000000000033 L 0.3375 0.46350000000000025 L 0.7935 0.46350000000000025 L 0.7935 0.05550000000000033 L 1.0170000000000001 0.05550000000000033 L 1.0170000000000001 1.0845000000000002 L 0.7935 1.0845000000000002 L 0.7935 0.6525000000000003 L 0.3375 0.6525000000000003 L 0.3375 1.0845000000000002 L 0.114 1.0845000000000002 M 1.22704248046875 0.18000000000000027 L 1.22704248046875 2.220446049250313e-16 L 1.43554248046875 2.220446049250313e-16 L 1.43554248046875 0.18000000000000027 L 1.22704248046875 0.18000000000000027 M 1.22704248046875 1.0845000000000002 L 1.22704248046875 0.2955000000000002 L 1.43554248046875 0.2955000000000002 L 1.43554248046875 1.0845000000000002 L 1.22704248046875 1.0845000000000002 M 1.627585693359375 1.0845000000000002 L 1.627585693359375 0.2955000000000002 L 1.800085693359375 0.2955000000000002 L 1.8165856933593751 0.4185000000000002 L 1.827085693359375 0.4185000000000002 Q 1.842085693359375 0.3795000000000003 1.866085693359375 0.3472500000000003 Q 1.890085693359375 0.3150000000000003 1.926085693359375 0.2955000000000002 Q 1.9620856933593749 0.27600000000000025 2.010085693359375 0.27600000000000025 Q 2.035585693359375 0.27600000000000025 2.056585693359375 0.2812500000000002 Q 2.0775856933593753 0.2865000000000002 2.0880856933593748 0.29100000000000026 L 2.0880856933593748 0.4800000000000002 L 2.023585693359375 0.4800000000000002 Q 1.977085693359375 0.4800000000000002 1.941835693359375 0.49275000000000024 Q 1.906585693359375 0.5055000000000003 1.882585693359375 0.5325000000000002 Q 1.858585693359375 0.5595000000000002 1.847335693359375 0.5985000000000003 Q 1.836085693359375 0.6375000000000002 1.836085693359375 0.6900000000000002 L 1.836085693359375 1.0845000000000002 L 1.627585693359375 1.0845000000000002 M 2.541078369140625 1.1025000000000003 Q 2.410578369140625 1.1025000000000003 2.322078369140625 1.0582500000000001 Q 2.233578369140625 1.0140000000000002 2.188578369140625 0.9225000000000002 Q 2.143578369140625 0.8310000000000002 2.143578369140625 0.6900000000000002 Q 2.143578369140625 0.5475000000000002 2.188578369140625 0.4567500000000002 Q 2.233578369140625 0.3660000000000002 2.321328369140625 0.3217500000000002 Q 2.409078369140625 0.2775000000000002 2.536578369140625 0.2775000000000002 Q 2.6565783691406253 0.2775000000000002 2.739078369140625 0.32025000000000026 Q 2.821578369140625 0.3630000000000002 2.863578369140625 0.45225000000000026 Q 2.905578369140625 0.5415000000000002 2.905578369140625 0.6825000000000002 L 2.905578369140625 0.7365000000000002 L 2.355078369140625 0.7365000000000002 Q 2.358078369140625 0.8055000000000002 2.376828369140625 0.8535000000000003 Q 2.395578369140625 0.9015000000000002 2.435328369140625 0.9247500000000002 Q 2.475078369140625 0.9480000000000002 2.541078369140625 0.9480000000000002 Q 2.577078369140625 0.9480000000000002 2.606328369140625 0.9390000000000003 Q 2.635578369140625 0.9300000000000003 2.6565783691406253 0.9120000000000003 Q 2.677578369140625 0.8940000000000002 2.6895783691406248 0.8670000000000002 Q 2.701578369140625 0.8400000000000003 2.701578369140625 0.8055000000000002 L 2.905578369140625 0.8055000000000002 Q 2.905578369140625 0.8805000000000003 2.878578369140625 0.9360000000000003 Q 2.851578369140625 0.9915000000000003 2.803578369140625 1.0282500000000003 Q 2.755578369140625 1.0650000000000002 2.688828369140625 1.0837500000000002 Q 2.622078369140625 1.1025000000000003 2.541078369140625 1.1025000000000003 M 2.358078369140625 0.6045000000000003 L 2.691078369140625 0.6045000000000003 Q 2.691078369140625 0.5595000000000002 2.6798283691406253 0.5265000000000002 Q 2.668578369140625 0.49350000000000027 2.649078369140625 0.47250000000000025 Q 2.629578369140625 0.45150000000000023 2.601828369140625 0.4417500000000002 Q 2.574078369140625 0.4320000000000003 2.539578369140625 0.4320000000000003 Q 2.482578369140625 0.4320000000000003 2.4443283691406252 0.4507500000000002 Q 2.406078369140625 0.46950000000000025 2.385828369140625 0.5077500000000003 Q 2.365578369140625 0.5460000000000003 2.358078369140625 0.6045000000000003 M 3.246054931640625 1.0845000000000002 L 2.976054931640625 0.05550000000000033 L 3.213054931640625 0.05550000000000033 L 3.363054931640625 0.6690000000000003 Q 3.3675549316406252 0.6825000000000002 3.372054931640625 0.7087500000000002 Q 3.376554931640625 0.7350000000000002 3.381054931640625 0.7635000000000003 Q 3.385554931640625 0.7920000000000003 3.388554931640625 0.8145000000000002 L 3.396054931640625 0.8145000000000002 Q 3.399054931640625 0.7980000000000003 3.401304931640625 0.7770000000000002 Q 3.403554931640625 0.7560000000000002 3.407304931640625 0.7357500000000002 Q 3.411054931640625 0.7155000000000002 3.414804931640625 0.6975000000000002 Q 3.418554931640625 0.6795000000000002 3.420054931640625 0.6690000000000003 L 3.559554931640625 0.05550000000000033 L 3.826554931640625 0.05550000000000033 L 3.969054931640625 0.6690000000000003 Q 3.973554931640625 0.6840000000000002 3.9780549316406253 0.7095000000000002 Q 3.982554931640625 0.7350000000000002 3.9870549316406247 0.7635000000000003 Q 3.991554931640625 0.7920000000000003 3.994554931640625 0.8145000000000002 L 4.002054931640625 0.8145000000000002 Q 4.005054931640625 0.7980000000000003 4.008804931640626 0.7785000000000002 Q 4.012554931640625 0.7590000000000002 4.016304931640625 0.7387500000000002 Q 4.020054931640625 0.7185000000000002 4.024554931640625 0.7005000000000002 Q 4.029054931640625 0.6825000000000002 4.032054931640625 0.6690000000000003 L 4.180554931640625 0.05550000000000033 L 4.395054931640625 0.05550000000000033 L 4.123554931640625 1.0845000000000002 L 3.868554931640625 1.0845000000000002 L 3.717054931640625 0.45150000000000023 Q 3.712554931640625 0.4305000000000002 3.707304931640625 0.4027500000000003 Q 3.702054931640625 0.3750000000000002 3.697554931640625 0.3480000000000002 Q 3.693054931640625 0.3210000000000002 3.690054931640625 0.30000000000000027 L 3.684054931640625 0.30000000000000027 Q 3.681054931640625 0.3210000000000002 3.677304931640625 0.34950000000000025 Q 3.673554931640625 0.3780000000000002 3.668304931640625 0.40500000000000025 Q 3.663054931640625 0.4320000000000003 3.658554931640625 0.45150000000000023 L 3.5085549316406253 1.0845000000000002 L 3.246054931640625 1.0845000000000002 M 4.504538818359375 0.18000000000000027 L 4.504538818359375 2.220446049250313e-16 L 4.713038818359375 2.220446049250313e-16 L 4.713038818359375 0.18000000000000027 L 4.504538818359375 0.18000000000000027 M 4.504538818359375 1.0845000000000002 L 4.504538818359375 0.2955000000000002 L 4.713038818359375 0.2955000000000002 L 4.713038818359375 1.0845000000000002 L 4.504538818359375 1.0845000000000002 M 5.22458203125 1.1025000000000003 Q 5.14208203125 1.1025000000000003 5.07608203125 1.0845000000000002 Q 5.01008203125 1.0665000000000002 4.96358203125 1.0342500000000003 Q 4.91708203125 1.0020000000000002 4.89233203125 0.9570000000000003 Q 4.86758203125 0.9120000000000003 4.86758203125 0.8550000000000002 Q 4.86758203125 0.8490000000000002 4.86758203125 0.8430000000000002 Q 4.86758203125 0.8370000000000002 4.86908203125 0.8340000000000003 L 5.07008203125 0.8340000000000003 Q 5.07008203125 0.8370000000000002 5.07008203125 0.8400000000000003 Q 5.07008203125 0.8430000000000002 5.07008203125 0.8460000000000002 Q 5.07158203125 0.8835000000000002 5.09408203125 0.9067500000000003 Q 5.11658203125 0.9300000000000003 5.15333203125 0.9405000000000002 Q 5.19008203125 0.9510000000000003 5.23058203125 0.9510000000000003 Q 5.26658203125 0.9510000000000003 5.30033203125 0.9442500000000003 Q 5.33408203125 0.9375000000000002 5.35733203125 0.9195000000000002 Q 5.38058203125 0.9015000000000002 5.38058203125 0.8730000000000002 Q 5.38058203125 0.8370000000000002 5.35133203125 0.8175000000000002 Q 5.32208203125 0.7980000000000003 5.27483203125 0.7860000000000003 Q 5.22758203125 0.7740000000000002 5.1720820312499995 0.7590000000000002 Q 5.12108203125 0.7470000000000002 5.07008203125 0.7312500000000002 Q 5.01908203125 0.7155000000000002 4.97783203125 0.6900000000000002 Q 4.93658203125 0.6645000000000003 4.91108203125 0.6232500000000003 Q 4.88558203125 0.5820000000000002 4.88558203125 0.5190000000000002 Q 4.88558203125 0.45750000000000024 4.91258203125 0.4117500000000003 Q 4.93958203125 0.3660000000000002 4.98683203125 0.3360000000000002 Q 5.03408203125 0.30600000000000027 5.09783203125 0.2917500000000002 Q 5.16158203125 0.2775000000000002 5.23508203125 0.2775000000000002 Q 5.30408203125 0.2775000000000002 5.36408203125 0.2917500000000002 Q 5.42408203125 0.30600000000000027 5.46908203125 0.3337500000000002 Q 5.51408203125 0.36150000000000027 5.53958203125 0.4027500000000003 Q 5.56508203125 0.4440000000000003 5.56508203125 0.4950000000000002 Q 5.56508203125 0.5055000000000003 5.56508203125 0.5145000000000002 Q 5.56508203125 0.5235000000000002 5.56358203125 0.5265000000000002 L 5.36408203125 0.5265000000000002 L 5.36408203125 0.5145000000000002 Q 5.36408203125 0.48750000000000027 5.34758203125 0.4687500000000002 Q 5.33108203125 0.4500000000000002 5.30033203125 0.4395000000000002 Q 5.26958203125 0.42900000000000027 5.22608203125 0.42900000000000027 Q 5.1960820312500005 0.42900000000000027 5.17133203125 0.4335000000000002 Q 5.14658203125 0.4380000000000003 5.12858203125 0.4470000000000002 Q 5.11058203125 0.4560000000000002 5.10083203125 0.4687500000000002 Q 5.09108203125 0.48150000000000026 5.09108203125 0.4995000000000003 Q 5.09108203125 0.5250000000000002 5.11283203125 0.5407500000000002 Q 5.13458203125 0.5565000000000002 5.17058203125 0.5670000000000003 Q 5.20658203125 0.5775000000000002 5.25008203125 0.5895000000000002 Q 5.30408203125 0.6045000000000003 5.36333203125 0.6187500000000002 Q 5.42258203125 0.6330000000000002 5.47358203125 0.6570000000000003 Q 5.5245820312500005 0.6810000000000003 5.55608203125 0.7252500000000002 Q 5.58758203125 0.7695000000000003 5.58758203125 0.8445000000000003 Q 5.58758203125 0.9165000000000002 5.55983203125 0.9660000000000002 Q 5.53208203125 1.0155000000000003 5.48258203125 1.0455000000000003 Q 5.43308203125 1.0755000000000003 5.36708203125 1.0890000000000002 Q 5.30108203125 1.1025000000000003 5.22458203125 1.1025000000000003 M 6.097535888671875 1.1025000000000003 Q 5.967035888671875 1.1025000000000003 5.878535888671875 1.0582500000000001 Q 5.790035888671875 1.0140000000000002 5.745035888671875 0.9225000000000002 Q 5.700035888671875 0.8310000000000002 5.700035888671875 0.6900000000000002 Q 5.700035888671875 0.5475000000000002 5.745035888671875 0.4567500000000002 Q 5.790035888671875 0.3660000000000002 5.877785888671875 0.3217500000000002 Q 5.965535888671875 0.2775000000000002 6.093035888671875 0.2775000000000002 Q 6.213035888671875 0.2775000000000002 6.295535888671875 0.32025000000000026 Q 6.378035888671875 0.3630000000000002 6.420035888671875 0.45225000000000026 Q 6.462035888671875 0.5415000000000002 6.462035888671875 0.6825000000000002 L 6.462035888671875 0.7365000000000002 L 5.911535888671875 0.7365000000000002 Q 5.914535888671875 0.8055000000000002 5.933285888671875 0.8535000000000003 Q 5.952035888671875 0.9015000000000002 5.991785888671875 0.9247500000000002 Q 6.031535888671875 0.9480000000000002 6.097535888671875 0.9480000000000002 Q 6.133535888671875 0.9480000000000002 6.162785888671875 0.9390000000000003 Q 6.192035888671875 0.9300000000000003 6.213035888671875 0.9120000000000003 Q 6.234035888671875 0.8940000000000002 6.246035888671875 0.8670000000000002 Q 6.258035888671875 0.8400000000000003 6.258035888671875 0.8055000000000002 L 6.462035888671875 0.8055000000000002 Q 6.462035888671875 0.8805000000000003 6.435035888671875 0.9360000000000003 Q 6.408035888671875 0.9915000000000003 6.360035888671875 1.0282500000000003 Q 6.3120358886718755 1.0650000000000002 6.245285888671875 1.0837500000000002 Q 6.178535888671875 1.1025000000000003 6.097535888671875 1.1025000000000003 M 5.914535888671875 0.6045000000000003 L 6.247535888671875 0.6045000000000003 Q 6.247535888671875 0.5595000000000002 6.236285888671875 0.5265000000000002 Q 6.225035888671875 0.49350000000000027 6.205535888671875 0.47250000000000025 Q 6.186035888671875 0.45150000000000023 6.158285888671875 0.4417500000000002 Q 6.130535888671875 0.4320000000000003 6.096035888671875 0.4320000000000003 Q 6.039035888671875 0.4320000000000003 6.000785888671875 0.4507500000000002 Q 5.962535888671875 0.46950000000000025 5.942285888671875 0.5077500000000003 Q 5.922035888671875 0.5460000000000003 5.914535888671875 0.6045000000000003" fill="#8a615c" fill-rule="nonzero"></path></g><g></g></g><defs><clipPath id="SvgjsClipPath5564"><path d=" M -2.674383241547051 -0.5951831958405294 h 2.274383241547051 v 2.274866391681059 h -2.274383241547051 Z"></path></clipPath><clipPath id="SvgjsClipPath55624cc6c0f3-9b77-4ee9-902f-fc032d0b1d26"><path d=" M -2.674383241547051 -0.5951831958405294 L -0.3999999999999999 -0.5951831958405294 L -0.3999999999999999 1.6796831958405296 L -2.6743832415470505 1.6796831958405296 Z"></path></clipPath></defs></svg>